P2
2 2
255
255 100
50 0
