P2
21 17
255
0 0 0 127 127 127 127 0 0 0 0 0 0 0 127 127 127 127 0 0 0
127 127 127 127 255 255 127 127 127 127 127 127 127 127 127 255 255 127 127 127 127
127 255 255 255 127 127 255 127 127 255 255 255 127 127 255 127 127 255 255 255 127
127 255 255 255 127 127 127 255 255 255 255 255 255 255 127 127 127 255 255 255 127
127 255 255 255 127 127 255 255 255 255 255 255 255 255 255 127 127 255 255 255 127
127 127 127 127 127 255 255 255 255 255 255 255 255 255 255 255 127 127 127 127 127
0 0 0 127 127 255 255 255 255 255 255 255 255 255 255 255 127 127 0 0 0
0 0 0 127 255 255 255 255 127 255 255 255 127 255 255 255 255 127 0 0 0
0 0 0 127 255 255 255 255 255 255 255 255 255 255 255 255 255 127 0 0 0
0 0 0 127 255 255 255 255 255 255 127 255 255 255 255 255 255 127 0 0 0
0 0 0 127 255 255 255 255 255 255 255 255 255 255 255 255 255 127 0 0 0
0 0 0 127 127 255 255 255 255 127 127 127 255 255 255 255 127 127 0 0 0
0 0 0 0 127 255 255 255 255 127 0 127 255 255 255 255 127 0 0 0 0
0 0 0 0 127 127 255 255 255 127 127 127 255 255 255 127 127 0 0 0 0
0 0 0 0 0 127 127 255 255 255 255 255 255 255 127 127 0 0 0 0 0
0 0 0 0 0 0 127 127 127 255 255 255 127 127 127 0 0 0 0 0 0
0 0 0 0 0 0 0 0 127 127 127 127 127 0 0 0 0 0 0 0 0
